<?xml version="1.0" standalone="no"?>
<!DOCTYPE svg PUBLIC "-//W3C//DTD SVG 20010904//EN"
 "http://www.w3.org/TR/2001/REC-SVG-20010904/DTD/svg10.dtd">
<svg version="1.0" xmlns="http://www.w3.org/2000/svg"
 width="1500.000000pt" height="1500.000000pt" viewBox="0 0 1500.000000 1500.000000"
 preserveAspectRatio="xMidYMid meet">
<metadata>
Created by potrace 1.14, written by Peter Selinger 2001-2017
</metadata>
<g transform="translate(0.000000,1500.000000) scale(0.100000,-0.100000)"
fill="#000000" stroke="none">
<path d="M6660 14800 c-25 -11 -53 -22 -62 -26 -10 -3 -18 -10 -18 -15 0 -5
-9 -9 -20 -9 -11 0 -20 -4 -20 -8 0 -5 -20 -19 -43 -31 -24 -12 -56 -33 -70
-47 -14 -13 -31 -24 -37 -24 -5 0 -10 -4 -10 -10 0 -5 -6 -10 -12 -10 -7 0
-26 -12 -43 -26 -16 -14 -40 -34 -53 -45 -12 -10 -25 -19 -28 -19 -11 0 -274
-268 -274 -278 0 -6 -4 -12 -9 -14 -11 -4 -121 -164 -121 -176 0 -6 -4 -12 -8
-14 -11 -4 -62 -98 -62 -114 0 -8 -4 -14 -10 -14 -5 0 -10 -7 -10 -15 0 -8 -4
-24 -10 -35 -5 -11 -14 -29 -20 -40 -5 -11 -10 -29 -10 -40 0 -11 -4 -20 -8
-20 -8 0 -30 -66 -44 -135 -5 -22 -13 -62 -19 -90 -6 -27 -13 -125 -16 -217
-5 -196 17 -174 -178 -183 -533 -27 -678 -36 -880 -54 -60 -6 -155 -15 -210
-20 -55 -5 -152 -17 -215 -26 -63 -9 -146 -21 -185 -26 -38 -5 -104 -13 -145
-19 -41 -6 -100 -13 -130 -16 -30 -3 -64 -9 -75 -14 -11 -5 -42 -11 -70 -14
-27 -3 -84 -13 -125 -21 -86 -19 -158 -32 -215 -40 -22 -4 -49 -10 -60 -15
-11 -5 -38 -11 -60 -14 -56 -7 -169 -33 -380 -87 -22 -6 -57 -13 -77 -16 -21
-3 -38 -9 -38 -13 0 -4 -17 -10 -37 -14 -90 -13 -113 -19 -113 -27 0 -5 -10
-9 -22 -9 -13 0 -36 -7 -52 -15 -15 -8 -39 -15 -52 -15 -12 0 -26 -4 -29 -10
-3 -5 -19 -10 -36 -10 -16 0 -29 -4 -29 -10 0 -5 -13 -10 -29 -10 -17 0 -33
-4 -36 -10 -3 -5 -15 -10 -26 -10 -10 0 -27 -4 -37 -10 -32 -17 -148 -60 -165
-60 -9 0 -17 -4 -17 -10 0 -5 -9 -10 -20 -10 -11 0 -28 -4 -38 -9 -9 -5 -39
-19 -67 -31 -27 -11 -63 -28 -78 -35 -16 -8 -35 -15 -43 -15 -8 0 -14 -4 -14
-10 0 -5 -11 -10 -25 -10 -14 0 -25 -4 -25 -10 0 -5 -7 -10 -15 -10 -8 0 -35
-11 -59 -25 -91 -51 -161 -85 -173 -85 -7 0 -13 -4 -13 -10 0 -5 -7 -10 -15
-10 -9 0 -21 -5 -28 -10 -25 -21 -88 -60 -97 -60 -6 0 -10 -4 -10 -10 0 -5 -4
-10 -10 -10 -5 0 -35 -17 -66 -37 -31 -21 -65 -42 -75 -48 -11 -5 -19 -13 -19
-17 0 -5 -7 -8 -15 -8 -8 0 -15 -4 -15 -8 0 -4 -12 -15 -27 -24 -16 -10 -41
-29 -58 -44 -16 -14 -46 -38 -64 -53 -50 -38 -241 -228 -241 -240 0 -5 -3 -11
-7 -13 -10 -4 -83 -95 -83 -103 0 -3 -8 -15 -18 -26 -11 -10 -25 -32 -33 -47
-8 -15 -16 -29 -19 -32 -15 -14 -40 -61 -40 -75 0 -8 -4 -15 -10 -15 -5 0 -10
-9 -10 -20 0 -11 -4 -20 -10 -20 -5 0 -10 -7 -10 -15 0 -8 -4 -23 -9 -33 -5
-9 -17 -37 -26 -62 -9 -25 -21 -53 -26 -62 -5 -10 -9 -29 -9 -42 0 -14 -5 -28
-10 -31 -6 -3 -10 -19 -10 -35 0 -16 -4 -32 -10 -35 -5 -3 -10 -23 -10 -44 0
-20 -4 -41 -9 -46 -5 -6 -11 -28 -14 -50 -3 -22 -10 -60 -16 -85 -5 -25 -15
-116 -22 -203 -13 -163 -3 -388 22 -482 6 -22 13 -57 16 -78 3 -20 9 -40 14
-43 5 -3 9 -18 9 -34 0 -16 5 -32 10 -35 6 -3 10 -17 10 -30 0 -13 5 -27 10
-30 6 -3 10 -17 10 -31 0 -13 5 -24 10 -24 6 0 10 -5 10 -10 0 -15 73 -164 82
-168 4 -2 8 -12 8 -22 0 -10 4 -20 8 -22 10 -4 82 -102 82 -112 0 -4 10 -17
22 -30 13 -13 37 -40 53 -61 41 -54 140 -152 200 -200 28 -22 55 -44 61 -50 6
-5 41 -30 77 -55 l67 -45 0 -52 c0 -28 -4 -55 -10 -58 -5 -3 -10 -24 -10 -45
0 -21 -4 -42 -10 -45 -5 -3 -10 -24 -10 -46 0 -21 -4 -47 -10 -57 -10 -17 -47
-190 -57 -267 -3 -22 -9 -44 -14 -49 -5 -6 -9 -31 -9 -56 0 -25 -4 -50 -9 -56
-5 -5 -11 -29 -14 -54 -3 -25 -17 -108 -32 -185 -15 -77 -31 -167 -36 -200 -5
-33 -14 -88 -19 -122 -14 -91 -28 -188 -39 -268 -5 -38 -17 -115 -26 -170 -30
-188 -64 -532 -84 -845 -27 -439 -34 -718 -22 -985 16 -354 35 -592 61 -775
25 -180 30 -209 45 -280 9 -41 19 -93 22 -115 3 -22 9 -44 14 -49 5 -6 9 -27
9 -47 0 -21 5 -41 10 -44 6 -3 10 -24 10 -46 0 -21 4 -39 9 -39 5 0 11 -17 14
-37 7 -52 49 -197 59 -201 4 -2 8 -17 8 -32 0 -16 5 -32 10 -35 6 -3 10 -17
10 -30 0 -13 5 -27 10 -30 6 -3 10 -16 10 -29 0 -12 4 -26 8 -32 5 -5 15 -25
22 -44 7 -19 20 -51 28 -70 8 -19 17 -44 22 -55 40 -105 49 -126 105 -231 19
-36 35 -72 35 -80 0 -8 5 -14 10 -14 6 0 10 -4 10 -9 0 -14 72 -135 82 -139 4
-2 8 -11 8 -21 0 -9 9 -26 19 -38 10 -11 26 -33 35 -49 23 -41 40 -68 47 -74
3 -3 21 -27 39 -55 39 -57 47 -67 77 -100 13 -13 23 -27 23 -30 0 -4 6 -12 13
-19 6 -7 30 -35 52 -62 49 -59 305 -317 360 -363 22 -18 55 -45 74 -59 18 -15
45 -37 60 -49 14 -13 30 -23 34 -23 4 0 18 -11 31 -25 13 -14 27 -25 32 -25 5
0 25 -14 44 -30 19 -16 41 -30 48 -30 6 0 12 -4 12 -8 0 -5 16 -17 35 -28 19
-10 35 -21 35 -24 0 -4 16 -12 35 -20 19 -8 35 -17 35 -22 0 -4 5 -8 10 -8 6
0 36 -16 66 -35 30 -19 59 -35 64 -35 6 0 10 -4 10 -10 0 -5 6 -10 14 -10 13
0 83 -35 179 -89 21 -11 44 -21 52 -21 8 0 15 -4 15 -10 0 -5 11 -10 25 -10
14 0 25 -4 25 -10 0 -5 9 -10 20 -10 11 0 20 -4 20 -8 0 -4 25 -16 55 -27 30
-10 55 -22 55 -27 0 -4 9 -8 19 -8 11 0 23 -4 26 -10 3 -5 15 -10 26 -10 10 0
27 -4 37 -9 29 -16 85 -38 127 -51 22 -7 44 -16 49 -21 6 -5 20 -9 32 -9 13 0
26 -4 29 -10 3 -5 15 -10 26 -10 10 0 27 -4 37 -9 9 -5 37 -15 62 -21 25 -7
59 -19 77 -26 17 -8 38 -14 46 -14 9 0 19 -4 22 -10 3 -5 16 -10 27 -10 23 0
81 -17 110 -31 10 -5 31 -9 48 -9 16 0 30 -4 30 -9 0 -5 15 -11 33 -14 17 -3
75 -17 127 -32 52 -14 106 -29 120 -31 14 -3 34 -9 45 -14 11 -5 34 -11 50
-14 40 -6 91 -19 205 -51 52 -15 109 -29 125 -32 17 -2 39 -8 50 -13 11 -5 36
-11 55 -15 19 -3 50 -8 68 -12 18 -3 35 -9 38 -14 3 -5 17 -9 31 -9 14 0 60
-11 102 -24 42 -13 96 -30 121 -36 25 -7 53 -16 62 -21 10 -5 29 -9 42 -9 14
0 28 -4 31 -10 3 -5 16 -10 29 -10 12 0 26 -4 32 -9 5 -5 27 -14 49 -21 22 -7
56 -19 75 -27 19 -8 46 -20 60 -25 14 -6 33 -14 42 -19 10 -5 25 -9 33 -9 8 0
15 -4 15 -10 0 -5 9 -10 20 -10 11 0 20 -4 20 -10 0 -5 5 -10 12 -10 6 0 19
-6 27 -14 9 -8 33 -24 54 -35 45 -25 54 -32 112 -88 41 -39 105 -124 105 -138
0 -11 73 -74 93 -81 9 -3 17 -10 17 -15 0 -5 9 -9 19 -9 11 0 23 -4 26 -10 3
-5 17 -10 30 -10 13 0 27 -5 30 -10 8 -14 110 -13 154 2 106 34 195 100 231
173 17 33 125 145 140 145 6 0 10 5 10 10 0 6 6 10 13 10 7 0 23 9 35 20 12
11 28 20 35 20 8 0 20 7 27 15 7 8 19 15 26 15 8 0 14 5 14 10 0 6 9 10 19 10
11 0 23 5 26 10 3 6 15 10 26 10 10 0 19 5 19 10 0 6 9 10 20 10 11 0 28 4 38
9 32 16 67 30 117 46 28 8 59 19 70 24 40 17 92 31 113 31 11 0 24 5 27 10 3
6 19 10 35 10 16 0 32 5 35 10 3 6 15 10 26 10 20 0 105 24 144 40 11 5 34 11
50 14 17 2 50 10 75 16 25 6 62 14 83 17 20 3 37 9 37 14 0 5 16 9 35 9 19 0
43 4 53 10 20 11 170 49 225 57 20 3 37 9 37 14 0 5 14 9 32 9 29 0 58 -17
117 -69 13 -11 27 -21 30 -21 3 0 22 -14 41 -30 19 -16 39 -30 43 -30 4 0 20
-11 35 -25 15 -14 32 -25 39 -25 7 0 13 -4 13 -8 0 -5 16 -14 35 -22 19 -8 35
-17 35 -22 0 -4 9 -8 19 -8 11 0 21 -4 23 -8 4 -11 98 -62 114 -62 8 0 14 -4
14 -10 0 -5 7 -10 15 -10 8 0 23 -4 33 -9 9 -5 28 -13 42 -19 14 -5 51 -22 83
-36 32 -14 64 -26 72 -26 7 0 17 -5 20 -10 3 -6 19 -10 35 -10 16 0 32 -4 35
-10 3 -5 19 -10 35 -10 16 0 32 -4 35 -10 3 -5 19 -10 35 -10 16 0 31 -4 34
-9 3 -5 27 -12 53 -16 27 -4 53 -10 58 -15 6 -4 30 -10 55 -13 25 -4 72 -11
105 -17 33 -6 94 -13 135 -16 41 -3 79 -10 84 -15 6 -5 47 -9 92 -9 45 0 106
-5 135 -11 31 -6 319 -14 669 -20 338 -5 640 -14 670 -19 30 -6 76 -13 103
-16 26 -4 50 -11 53 -15 3 -5 13 -9 23 -9 25 0 100 -38 130 -67 38 -36 108
-83 123 -83 8 0 19 -5 24 -10 21 -21 138 -24 200 -5 88 27 204 114 204 152 0
7 4 13 8 13 4 0 14 21 21 48 14 46 31 78 61 115 31 39 68 77 74 77 4 0 17 10
30 23 28 27 69 57 105 77 14 8 28 17 31 20 15 15 68 48 88 54 12 4 22 12 22
17 0 5 6 9 13 9 6 0 23 9 37 20 14 11 33 20 43 20 9 0 17 4 17 9 0 5 8 11 18
14 9 3 40 19 67 35 105 61 126 72 139 72 8 0 16 4 18 8 2 5 33 25 71 45 37 20
97 54 135 74 37 20 69 40 70 45 2 4 12 8 23 8 10 0 19 4 19 8 0 5 16 14 35 22
19 8 35 17 35 22 0 4 9 8 19 8 11 0 21 4 23 8 4 10 157 102 169 102 5 0 9 3 9
8 0 4 16 16 35 26 19 11 35 23 35 28 0 4 6 8 13 8 7 0 23 9 35 20 12 11 24 20
27 20 9 0 110 72 113 82 2 4 10 8 18 8 8 0 14 5 14 10 0 6 6 10 14 10 8 0 30
16 49 35 19 19 38 35 41 35 6 0 31 20 76 60 15 14 44 40 63 57 20 18 39 33 42
33 7 0 117 113 180 185 28 31 55 62 60 69 6 6 28 34 50 61 22 28 48 57 57 66
10 9 18 20 18 24 0 4 25 42 55 85 30 43 55 83 55 89 0 6 5 11 10 11 6 0 10 9
10 20 0 11 3 20 8 20 4 0 12 10 18 23 6 12 27 53 47 90 20 38 37 77 37 88 0
10 5 19 10 19 6 0 10 6 10 14 0 8 6 27 14 43 8 15 24 55 36 88 12 33 26 68 31
77 5 10 9 29 9 42 0 14 4 27 9 30 5 3 11 20 14 38 15 86 19 104 25 118 39 96
76 433 75 690 0 264 -41 690 -73 765 -5 11 -11 40 -14 65 -2 25 -10 68 -16 95
-6 28 -14 71 -17 98 -3 26 -9 47 -14 47 -5 0 -9 18 -9 39 0 22 -4 42 -8 45 -5
3 -17 44 -27 91 -10 47 -22 88 -26 91 -5 3 -9 18 -9 34 0 16 -4 32 -10 35 -5
3 -10 16 -10 28 0 12 -9 47 -20 77 -11 30 -20 65 -20 77 0 12 -4 25 -10 28 -5
3 -10 14 -10 23 0 9 -7 30 -15 46 -8 15 -15 37 -15 47 0 10 -4 21 -10 24 -5 3
-10 17 -10 30 0 13 -4 27 -10 30 -5 3 -10 19 -10 36 0 16 -4 29 -10 29 -5 0
-10 9 -10 20 0 11 -4 28 -10 38 -5 9 -21 49 -35 87 -14 39 -30 78 -36 87 -5
10 -9 27 -9 38 0 11 -4 20 -10 20 -5 0 -10 5 -10 12 0 16 -50 141 -61 152 -5
6 -9 18 -9 28 0 10 -4 18 -10 18 -5 0 -10 9 -10 20 0 11 -4 28 -9 38 -5 9 -13
28 -19 42 -9 23 -53 119 -74 162 -4 10 -8 25 -8 33 0 8 -4 15 -10 15 -5 0 -10
9 -10 20 0 11 -4 20 -10 20 -5 0 -10 11 -10 25 0 14 -4 25 -9 25 -5 0 -13 10
-17 23 -4 12 -20 49 -35 81 -16 33 -29 65 -29 73 0 7 -4 13 -10 13 -5 0 -10 6
-10 14 0 8 -16 42 -35 76 -19 34 -35 68 -35 76 0 8 -4 14 -10 14 -5 0 -10 9
-10 20 0 11 -4 20 -10 20 -5 0 -10 9 -10 19 0 11 -4 23 -10 26 -17 10 -11 58
10 85 11 14 20 29 20 33 0 4 9 18 20 30 27 29 70 95 70 107 0 6 5 10 10 10 6
0 10 9 10 20 0 11 5 20 10 20 6 0 10 5 10 12 0 10 36 93 61 140 5 10 9 29 9
43 0 14 4 25 9 25 5 0 11 17 14 38 4 20 12 69 19 107 15 88 15 317 -1 410 -6
39 -14 87 -17 108 -4 20 -10 40 -15 43 -5 3 -9 15 -9 28 0 12 -9 40 -19 62
-11 22 -23 52 -26 67 -4 15 -11 30 -16 33 -5 3 -9 14 -9 25 0 10 -4 19 -10 19
-5 0 -10 6 -10 14 0 8 -16 43 -35 78 -20 35 -41 73 -47 86 -6 12 -15 22 -20
22 -4 0 -8 9 -8 20 0 11 -4 20 -8 20 -4 0 -15 13 -24 28 -10 16 -35 48 -58 72
-22 23 -40 44 -40 46 0 6 -71 74 -76 74 -2 0 -19 14 -36 31 -18 17 -45 38 -60
47 -16 9 -28 20 -28 24 0 4 -4 8 -9 8 -9 0 -118 63 -138 80 -7 5 -19 10 -28
10 -8 0 -15 5 -15 10 0 6 -11 10 -25 10 -14 0 -25 5 -25 10 0 6 -9 10 -20 10
-11 0 -20 5 -20 10 0 6 -8 10 -18 10 -10 0 -42 11 -70 25 -29 14 -61 25 -71
25 -11 0 -23 5 -26 10 -3 6 -17 10 -30 10 -13 0 -27 5 -30 10 -3 6 -21 10 -40
10 -19 0 -36 4 -39 9 -3 5 -23 11 -43 14 -21 3 -65 13 -98 22 -58 17 -94 23
-260 46 -151 21 -300 30 -577 35 -173 3 -278 9 -278 15 0 6 15 33 33 62 18 29
43 75 57 102 13 28 34 66 45 85 12 19 27 55 35 80 7 25 17 49 22 55 4 5 8 21
8 36 0 15 4 30 9 33 5 3 11 20 14 38 3 18 13 65 21 103 40 188 40 496 0 703
-9 42 -18 95 -21 117 -3 22 -9 44 -14 50 -5 5 -9 24 -9 41 0 18 -4 36 -10 39
-5 3 -10 19 -10 35 0 16 -4 32 -10 35 -5 3 -10 17 -10 31 0 13 -4 32 -10 42
-5 9 -16 35 -25 57 -9 22 -21 48 -26 57 -5 10 -9 25 -9 33 0 8 -4 15 -10 15
-5 0 -10 9 -10 20 0 11 -4 20 -10 20 -5 0 -10 6 -10 13 0 7 -20 42 -45 79 -25
37 -45 72 -45 78 0 5 -3 10 -7 10 -5 0 -19 17 -33 37 -53 78 -261 287 -355
357 -22 17 -42 33 -45 36 -9 11 -229 160 -236 160 -4 0 -22 11 -41 26 -18 14
-47 30 -63 36 -17 5 -30 13 -30 17 0 4 -16 13 -35 21 -19 8 -35 17 -35 22 0 4
-9 8 -20 8 -11 0 -20 5 -20 10 0 6 -9 10 -19 10 -11 0 -21 3 -23 8 -3 7 -55
33 -133 67 -22 10 -67 30 -100 46 -34 15 -73 31 -88 34 -15 4 -27 11 -27 16 0
5 -9 9 -19 9 -11 0 -23 5 -26 10 -3 6 -15 10 -26 10 -10 0 -27 4 -37 9 -29 16
-85 38 -127 51 -22 7 -44 16 -50 21 -5 5 -22 9 -37 9 -15 0 -28 5 -28 10 0 6
-13 10 -29 10 -17 0 -33 5 -36 10 -3 6 -17 10 -30 10 -13 0 -27 5 -30 10 -3 6
-19 10 -34 10 -15 0 -31 4 -36 8 -10 8 -75 29 -165 52 -25 7 -55 16 -68 21
-13 5 -36 9 -52 9 -17 0 -30 5 -30 10 0 6 -17 10 -38 10 -21 0 -42 4 -47 9 -6
5 -48 17 -95 26 -47 10 -89 21 -94 26 -6 5 -29 9 -53 9 -24 0 -43 5 -43 10 0
6 -22 10 -48 10 -26 0 -52 4 -57 9 -6 5 -28 11 -50 15 -79 11 -151 24 -230 41
-44 10 -107 21 -140 26 -33 6 -87 14 -120 19 -96 15 -204 30 -285 40 -41 4
-124 16 -185 25 -275 41 -816 81 -1365 100 -102 3 -200 8 -218 11 l-33 5 5 87
c6 116 16 185 27 197 5 5 9 19 9 30 0 12 9 41 21 66 63 133 74 154 81 157 4 2
8 8 8 14 0 5 8 20 18 33 9 12 24 33 32 45 23 35 170 182 215 215 22 17 49 38
59 48 11 9 26 17 33 17 7 0 13 4 13 8 0 5 16 17 35 28 19 10 35 22 35 26 0 5
9 8 20 8 11 0 20 3 20 8 0 4 14 13 32 21 42 19 120 97 139 139 7 17 17 32 20
32 18 0 36 197 20 213 -6 6 -11 24 -11 39 0 15 -4 28 -10 28 -5 0 -10 9 -10
20 0 11 -4 20 -10 20 -5 0 -10 6 -10 13 0 20 -72 90 -120 117 -40 22 -59 25
-165 27 -101 3 -127 0 -165 -17z m130 -5343 c179 -10 381 -22 450 -28 197 -18
327 -28 430 -34 52 -3 104 -10 115 -15 11 -5 56 -11 100 -14 44 -2 166 -16
270 -31 105 -14 217 -29 250 -31 33 -3 69 -9 80 -14 11 -5 47 -11 80 -14 33
-3 89 -10 125 -15 36 -6 94 -15 130 -20 113 -17 194 -33 222 -44 23 -10 27
-18 30 -59 4 -63 2 -68 -31 -68 -15 0 -31 -4 -36 -8 -6 -5 -40 -17 -78 -27
-37 -9 -70 -21 -73 -26 -3 -5 -18 -9 -35 -9 -16 0 -29 -4 -29 -10 0 -5 -16
-10 -35 -10 -19 0 -35 -4 -35 -10 0 -5 -13 -10 -30 -10 -16 0 -30 -4 -30 -8 0
-5 -24 -14 -52 -21 -29 -7 -63 -19 -75 -27 -12 -8 -34 -14 -48 -14 -14 0 -25
-4 -25 -10 0 -5 -11 -10 -24 -10 -14 0 -28 -4 -31 -10 -3 -5 -17 -10 -31 -10
-13 0 -24 -4 -24 -10 0 -5 -13 -10 -30 -10 -16 0 -30 -4 -30 -9 0 -5 -13 -12
-30 -16 -16 -4 -32 -11 -35 -16 -4 -5 -15 -9 -26 -9 -10 0 -27 -4 -37 -9 -18
-9 -65 -29 -97 -41 -11 -4 -58 -24 -103 -44 -46 -20 -90 -36 -98 -36 -8 0 -14
-4 -14 -10 0 -5 -9 -10 -20 -10 -11 0 -20 -4 -20 -10 0 -5 -11 -10 -25 -10
-14 0 -25 -4 -25 -8 0 -5 -25 -17 -55 -27 -30 -11 -55 -23 -55 -27 0 -4 -9 -8
-20 -8 -11 0 -20 -4 -20 -10 0 -5 -7 -10 -15 -10 -8 0 -30 -9 -50 -20 -20 -11
-42 -20 -50 -20 -8 0 -15 -4 -15 -10 0 -5 -11 -12 -25 -16 -14 -3 -25 -10 -25
-15 0 -5 -6 -9 -13 -9 -18 0 -67 -24 -67 -32 0 -5 -11 -8 -25 -8 -14 0 -25 -4
-25 -10 0 -5 -4 -10 -9 -10 -9 0 -118 -63 -138 -80 -7 -5 -19 -10 -28 -10 -8
0 -15 -3 -15 -8 0 -4 -15 -13 -32 -21 -18 -8 -35 -17 -38 -21 -3 -4 -27 -20
-55 -36 -27 -15 -54 -32 -60 -36 -20 -16 -86 -58 -91 -58 -3 0 -14 -8 -25 -18
-10 -11 -32 -25 -47 -33 -15 -8 -37 -23 -48 -34 -12 -11 -48 -38 -79 -60 -32
-22 -67 -49 -79 -60 -12 -11 -42 -36 -67 -57 -50 -40 -279 -264 -279 -273 0
-3 -8 -14 -17 -24 -48 -52 -73 -82 -73 -89 0 -6 -41 -61 -78 -107 -4 -5 -15
-25 -22 -42 -8 -18 -18 -33 -22 -33 -5 0 -8 -9 -8 -20 0 -11 -4 -20 -10 -20
-5 0 -10 -9 -10 -19 0 -11 -3 -21 -7 -23 -12 -5 -43 -68 -43 -87 0 -10 -3 -21
-7 -25 -12 -12 -33 -80 -33 -108 0 -16 -4 -28 -9 -28 -15 0 -24 -118 -24 -315
1 -204 10 -335 24 -335 5 0 9 -20 9 -45 0 -25 5 -45 10 -45 6 0 10 -15 10 -34
0 -19 5 -38 10 -41 6 -3 10 -17 10 -30 0 -13 4 -26 9 -30 5 -3 12 -19 16 -35
4 -17 11 -30 16 -30 5 0 9 -9 9 -20 0 -11 5 -20 10 -20 6 0 10 -7 10 -15 0
-14 31 -75 50 -98 6 -7 27 -37 47 -67 20 -30 45 -62 55 -71 10 -9 18 -21 18
-28 0 -6 4 -11 8 -11 5 0 44 -34 87 -75 43 -41 84 -75 91 -75 7 0 14 -4 16 -8
6 -17 110 -81 206 -128 l99 -48 7 -91 c8 -100 25 -422 32 -615 3 -69 9 -129
15 -135 5 -5 9 -47 9 -93 0 -47 4 -101 9 -121 6 -20 15 -90 22 -156 6 -66 16
-140 21 -165 5 -25 12 -72 14 -105 3 -33 9 -69 14 -80 5 -11 11 -42 14 -70 3
-27 10 -76 15 -107 6 -32 15 -82 20 -110 23 -126 34 -174 42 -183 5 -5 9 -26
9 -46 0 -21 4 -40 9 -43 5 -3 12 -24 15 -46 3 -22 9 -58 12 -80 3 -22 10 -40
15 -40 5 0 9 -12 9 -27 0 -16 11 -59 25 -98 13 -38 25 -80 25 -92 0 -13 5 -23
10 -23 6 0 10 -13 10 -29 0 -17 5 -33 10 -36 6 -3 10 -19 10 -36 0 -16 5 -29
10 -29 6 0 10 -8 10 -17 0 -10 14 -54 31 -98 17 -44 33 -90 36 -103 3 -12 9
-25 14 -28 5 -3 9 -12 9 -20 0 -8 10 -36 21 -62 65 -142 91 -199 99 -214 6
-10 10 -25 10 -33 0 -8 3 -15 8 -15 4 0 12 -10 18 -23 28 -58 70 -132 77 -135
4 -2 7 -12 7 -23 0 -10 3 -19 8 -19 4 0 19 -22 35 -49 l27 -50 -32 -15 c-18
-8 -46 -17 -63 -20 -16 -2 -50 -10 -75 -16 -25 -6 -62 -14 -82 -17 -21 -3 -38
-9 -38 -14 0 -5 -15 -9 -33 -9 -19 0 -37 -3 -40 -7 -8 -7 -164 -51 -215 -60
-18 -3 -35 -9 -38 -14 -3 -5 -18 -9 -35 -9 -16 0 -29 -4 -29 -10 0 -5 -13 -10
-29 -10 -17 0 -33 -4 -36 -10 -3 -5 -15 -10 -26 -10 -10 0 -27 -4 -37 -10 -26
-14 -82 -37 -127 -51 -22 -7 -44 -17 -50 -21 -5 -4 -17 -8 -27 -8 -10 0 -18
-4 -18 -10 0 -5 -7 -10 -15 -10 -18 0 -89 -32 -93 -42 -2 -5 -12 -8 -23 -8
-10 0 -19 -4 -19 -8 0 -5 -16 -14 -35 -22 -19 -8 -35 -17 -35 -22 0 -4 -9 -8
-20 -8 -11 0 -20 -4 -20 -8 0 -5 -15 -16 -32 -25 -42 -21 -67 -38 -91 -58 -15
-13 -23 -14 -43 -5 -13 6 -24 14 -24 19 0 4 -5 7 -10 7 -6 0 -16 4 -23 10 -59
48 -77 60 -91 60 -9 0 -16 3 -16 8 0 4 -24 18 -53 32 -28 14 -54 27 -57 30 -3
3 -23 13 -45 24 -22 10 -48 22 -57 27 -10 5 -25 9 -33 9 -8 0 -15 5 -15 10 0
6 -7 10 -15 10 -8 0 -23 4 -33 9 -15 8 -48 21 -127 51 -11 4 -33 13 -48 19
-15 6 -37 11 -47 11 -11 0 -20 5 -20 10 0 6 -13 10 -29 10 -17 0 -33 5 -36 10
-3 6 -15 10 -25 10 -11 0 -54 11 -96 25 -42 14 -85 25 -95 25 -11 0 -19 5 -19
10 0 6 -15 10 -34 10 -19 0 -38 5 -41 10 -3 6 -21 10 -40 10 -19 0 -36 4 -39
9 -3 5 -20 11 -38 14 -96 17 -209 46 -223 58 -5 5 -26 9 -46 9 -21 0 -40 4
-43 9 -6 8 -31 14 -119 27 -20 4 -40 10 -43 15 -3 5 -20 9 -38 9 -17 0 -36 4
-41 9 -6 4 -46 16 -90 26 -44 10 -84 22 -90 27 -5 4 -21 8 -36 8 -15 0 -31 5
-34 10 -3 6 -19 10 -35 10 -16 0 -32 4 -35 10 -3 5 -19 10 -35 10 -16 0 -31 4
-34 9 -3 5 -37 17 -76 26 -39 9 -73 21 -76 26 -3 5 -16 9 -29 9 -13 0 -27 4
-30 10 -3 6 -17 10 -30 10 -13 0 -27 5 -30 10 -3 6 -15 10 -26 10 -10 0 -27 4
-37 9 -37 20 -144 61 -158 61 -8 0 -14 5 -14 10 0 6 -11 10 -25 10 -14 0 -25
5 -25 10 0 6 -11 10 -24 10 -14 0 -28 4 -31 10 -3 6 -15 10 -26 10 -10 0 -19
3 -19 8 0 4 -32 21 -70 37 -38 17 -70 33 -70 38 0 4 -9 7 -20 7 -11 0 -20 5
-20 10 0 6 -6 10 -14 10 -16 0 -110 51 -114 62 -2 4 -12 8 -23 8 -10 0 -19 5
-19 10 0 6 -7 10 -15 10 -8 0 -15 3 -15 8 0 4 -18 16 -40 26 -22 10 -47 26
-57 35 -10 9 -30 22 -45 30 -16 8 -28 18 -28 23 0 4 -5 8 -12 8 -12 0 -130 89
-136 102 -2 5 -8 8 -13 8 -6 0 -21 10 -34 22 -13 13 -40 37 -61 53 -83 66
-305 298 -375 391 -41 54 -82 108 -92 119 -10 11 -30 40 -44 65 -14 25 -29 47
-32 50 -6 5 -13 17 -59 99 -14 25 -28 48 -31 51 -14 12 -141 281 -141 298 0 7
-4 12 -8 12 -4 0 -14 21 -21 48 -8 26 -18 54 -22 62 -16 29 -59 144 -59 157 0
7 -4 21 -9 31 -5 9 -14 37 -21 62 -7 25 -16 53 -21 62 -5 10 -9 31 -9 47 0 17
-4 32 -9 35 -5 3 -12 26 -15 51 -4 24 -11 47 -17 50 -5 4 -9 24 -9 45 0 21 -5
42 -10 45 -6 3 -10 26 -10 50 0 24 -5 47 -10 50 -5 3 -10 30 -10 59 0 28 -4
56 -9 62 -5 5 -12 34 -14 64 -3 30 -10 84 -16 120 -73 445 -73 1431 0 1995 7
50 14 122 16 160 2 39 8 79 13 90 5 11 11 52 14 90 7 101 38 319 62 440 8 44
19 107 24 140 5 33 14 87 20 120 6 33 14 83 16 110 3 28 10 54 15 59 5 6 9 29
9 53 0 24 4 51 10 61 11 20 49 204 57 275 3 26 9 47 13 47 4 0 11 21 14 48 11
96 18 137 26 147 5 6 14 41 20 78 11 59 16 70 41 82 15 8 41 15 58 15 16 0 32
4 35 9 3 5 23 11 43 14 21 3 85 17 143 32 58 15 122 29 143 32 20 3 40 9 43
14 3 5 25 9 50 9 24 0 44 4 44 9 0 5 21 11 48 14 42 4 76 11 232 48 25 6 69
15 98 20 28 5 77 14 107 19 30 6 80 15 110 20 30 6 79 14 108 20 28 5 81 14
117 20 36 5 72 13 80 17 8 3 42 10 75 14 33 5 92 13 130 19 39 6 97 13 130 16
33 3 69 9 80 14 11 5 47 11 80 14 33 2 146 17 250 31 105 15 226 29 270 31 44
3 89 9 100 14 11 5 63 12 115 14 52 3 145 10 205 15 61 5 169 14 240 20 72 6
278 18 459 26 182 9 332 18 335 21 11 11 841 -3 1151 -19z m6347 -2627 c3 -11
9 -20 14 -20 5 0 9 -5 9 -11 0 -6 29 -70 64 -142 35 -73 71 -151 81 -174 11
-24 22 -43 27 -43 4 0 8 -9 8 -19 0 -11 5 -23 10 -26 6 -3 10 -15 10 -26 0
-10 5 -19 10 -19 6 0 10 -9 10 -20 0 -11 5 -20 10 -20 6 0 10 -8 10 -17 0 -10
11 -40 25 -68 13 -27 25 -56 25 -62 0 -7 5 -13 10 -13 6 0 10 -9 10 -19 0 -11
5 -23 10 -26 6 -3 10 -17 10 -31 0 -13 5 -24 10 -24 6 0 10 -6 10 -14 0 -8 7
-27 15 -43 18 -37 49 -109 65 -153 15 -44 30 -80 41 -102 5 -10 9 -27 9 -37 0
-11 4 -22 9 -26 5 -3 12 -19 16 -35 4 -17 11 -30 16 -30 5 0 9 -13 9 -28 0
-16 3 -32 7 -36 10 -9 33 -78 33 -98 0 -10 5 -18 10 -18 6 0 10 -13 10 -28 0
-15 4 -32 9 -37 11 -13 61 -171 61 -196 0 -10 5 -19 10 -19 6 0 10 -15 10 -34
0 -19 5 -38 10 -41 6 -3 10 -19 10 -35 0 -16 4 -31 9 -34 5 -3 11 -23 14 -43
3 -21 12 -65 22 -98 19 -68 32 -127 46 -202 5 -29 14 -79 19 -110 14 -77 27
-175 39 -303 6 -58 15 -153 22 -212 11 -108 7 -175 -23 -418 -5 -47 -12 -110
-15 -140 -3 -30 -9 -59 -14 -65 -5 -5 -9 -24 -9 -41 0 -18 -4 -36 -10 -39 -5
-3 -10 -24 -10 -46 0 -21 -4 -39 -10 -39 -5 0 -10 -11 -10 -25 0 -14 -4 -33
-9 -43 -24 -44 -41 -87 -41 -103 0 -10 -4 -21 -10 -24 -5 -3 -10 -15 -10 -26
0 -10 -4 -19 -10 -19 -5 0 -10 -11 -10 -25 0 -14 -4 -25 -10 -25 -5 0 -10 -9
-10 -20 0 -11 -4 -20 -8 -20 -4 0 -21 -27 -37 -60 -17 -33 -33 -60 -37 -60 -5
0 -8 -7 -8 -15 0 -8 -3 -15 -8 -15 -4 0 -14 -15 -21 -32 -8 -18 -20 -38 -25
-44 -6 -7 -20 -24 -31 -40 -11 -15 -24 -32 -30 -38 -5 -6 -23 -28 -39 -49 -29
-40 -230 -243 -283 -287 -16 -14 -45 -36 -63 -50 -18 -14 -44 -35 -59 -47 -14
-13 -32 -23 -38 -23 -7 0 -13 -3 -13 -7 0 -5 -20 -21 -45 -38 -24 -16 -45 -33
-45 -37 0 -5 -9 -8 -19 -8 -11 0 -21 -4 -23 -9 -4 -11 -144 -101 -157 -101 -6
0 -11 -4 -11 -10 0 -5 -6 -10 -14 -10 -8 0 -16 -4 -18 -8 -3 -8 -35 -26 -203
-117 -33 -18 -80 -44 -105 -59 -25 -15 -53 -29 -62 -33 -10 -3 -18 -9 -18 -14
0 -5 -6 -9 -14 -9 -8 0 -42 -16 -76 -35 -34 -19 -66 -35 -70 -35 -5 0 -10 -3
-12 -7 -1 -5 -38 -26 -80 -48 -43 -21 -78 -42 -78 -45 0 -4 -16 -12 -35 -20
-19 -8 -35 -17 -35 -22 0 -4 -5 -8 -10 -8 -11 0 -87 -47 -108 -67 -6 -6 -21
-15 -32 -18 -11 -3 -20 -11 -20 -16 0 -5 -7 -9 -15 -9 -8 0 -15 -4 -15 -10 0
-5 -7 -10 -15 -10 -7 0 -18 -6 -22 -12 -4 -7 -24 -24 -43 -38 -41 -29 -75 -58
-141 -123 -46 -45 -82 -59 -105 -39 -5 5 -36 14 -69 21 -33 7 -76 17 -95 22
-126 34 -335 47 -990 59 -476 9 -616 16 -770 39 -109 16 -275 53 -278 62 -2 5
-19 9 -38 9 -19 0 -34 5 -34 10 0 6 -13 10 -29 10 -17 0 -33 5 -36 10 -3 6
-15 10 -26 10 -10 0 -27 4 -37 8 -9 5 -42 20 -72 34 -107 49 -250 122 -250
127 0 4 -13 12 -28 19 -16 6 -38 21 -50 32 -12 11 -25 20 -29 20 -4 0 -21 11
-37 25 -16 14 -32 25 -36 25 -4 0 -26 18 -49 40 -22 22 -43 40 -45 40 -6 0
-166 161 -166 167 0 3 -13 17 -28 31 -15 15 -41 45 -57 67 -17 22 -38 49 -47
59 -10 11 -18 26 -18 33 0 7 -4 13 -10 13 -5 0 -10 7 -10 15 0 8 -5 15 -10 15
-6 0 -14 8 -17 18 -4 9 -15 26 -25 36 -10 11 -18 26 -18 33 0 7 -4 13 -10 13
-5 0 -10 7 -10 15 0 8 -4 15 -10 15 -5 0 -10 9 -10 20 0 11 -4 20 -9 20 -5 0
-17 20 -28 45 -10 25 -21 45 -25 45 -5 0 -8 9 -8 20 0 11 -4 20 -10 20 -5 0
-10 4 -10 10 0 11 -71 162 -80 170 -3 3 -12 25 -20 50 -7 25 -17 49 -22 55 -4
5 -8 17 -8 27 0 10 -4 18 -10 18 -5 0 -10 13 -10 29 0 17 -4 32 -9 36 -5 3
-12 19 -16 35 -4 17 -11 30 -16 30 -5 0 -9 13 -9 29 0 17 -4 33 -10 36 -5 3
-10 19 -10 36 0 16 -4 29 -10 29 -5 0 -10 13 -10 29 0 17 -4 33 -10 36 -5 3
-10 19 -10 35 0 16 -4 31 -8 34 -5 3 -17 42 -27 88 -10 46 -22 87 -27 93 -4 5
-8 26 -8 47 0 21 -4 38 -10 38 -5 0 -10 19 -10 43 0 24 -4 47 -9 53 -9 9 -15
45 -27 144 -3 25 -8 52 -11 60 -23 54 -70 369 -79 523 -3 48 -9 87 -14 87 -5
0 -11 46 -13 103 -3 56 -10 152 -16 212 -13 123 -40 704 -34 721 2 6 19 17 38
24 19 8 35 17 35 22 0 4 9 8 20 8 11 0 20 4 20 10 0 5 11 12 25 16 14 3 25 10
25 15 0 5 9 9 20 9 11 0 20 5 20 10 0 6 6 10 14 10 15 0 144 65 161 81 5 5 17
9 27 9 10 0 18 5 18 10 0 6 9 10 20 10 11 0 20 5 20 10 0 6 11 10 25 10 14 0
25 5 25 10 0 6 9 10 20 10 11 0 20 5 20 10 0 6 4 10 9 10 9 0 119 49 204 91
22 10 45 19 53 19 8 0 14 5 14 10 0 6 5 10 11 10 11 0 67 23 101 41 10 5 25 9
33 9 8 0 15 5 15 10 0 6 7 10 15 10 8 0 23 4 33 9 40 21 136 62 172 74 22 6
40 15 40 19 0 5 11 8 25 8 14 0 25 5 25 10 0 6 11 10 24 10 14 0 27 4 31 9 3
5 29 17 58 26 28 10 56 21 62 26 5 5 19 9 32 9 13 0 23 5 23 10 0 6 11 10 24
10 14 0 28 5 31 10 3 6 17 10 31 10 13 0 24 5 24 10 0 6 8 10 18 10 19 0 107
32 118 43 4 4 17 7 29 7 12 0 25 3 29 7 9 10 78 33 99 33 9 0 17 5 17 10 0 6
13 10 29 10 17 0 33 5 36 10 3 6 14 10 23 10 9 0 30 7 46 15 15 8 39 15 52 15
12 0 26 5 29 10 3 6 17 10 30 10 13 0 27 5 30 10 3 6 22 10 41 10 19 0 34 5
34 10 0 6 13 10 28 10 16 0 32 3 36 7 9 9 156 52 204 60 17 3 32 9 32 14 0 5
18 9 39 9 22 0 43 5 46 10 3 6 21 10 40 10 19 0 36 4 39 9 3 5 23 11 43 14 48
6 122 25 148 37 11 5 36 11 55 14 19 3 58 10 85 16 28 6 71 14 98 17 26 3 47
9 47 14 0 5 20 9 45 9 25 0 53 4 63 10 18 10 224 48 307 57 28 3 54 9 60 14 5
5 37 9 72 9 35 0 63 4 63 9 0 5 30 12 68 14 37 3 155 17 262 32 274 38 479 56
823 73 103 5 191 12 194 16 3 3 128 6 276 6 260 0 269 -1 274 -20z"/>
</g>
</svg>
