<?xml version="1.0" standalone="no"?>
<!DOCTYPE svg PUBLIC "-//W3C//DTD SVG 20010904//EN"
 "http://www.w3.org/TR/2001/REC-SVG-20010904/DTD/svg10.dtd">
<svg version="1.0" xmlns="http://www.w3.org/2000/svg"
 width="720.000000pt" height="720.000000pt" viewBox="0 0 720.000000 720.000000"
 preserveAspectRatio="xMidYMid meet">
<metadata>
Created by potrace 1.14, written by Peter Selinger 2001-2017
</metadata>
<g transform="translate(0.000000,720.000000) scale(0.100000,-0.100000)"
fill="#000000" stroke="none">
<path d="M3690 6753 c-651 -45 -972 -123 -1411 -344 -506 -253 -918 -606
-1208 -1034 -178 -264 -284 -492 -414 -890 -308 -949 -348 -1838 -112 -2514
197 -565 645 -902 1545 -1160 1169 -335 1804 -461 2200 -436 331 21 593 89
878 225 447 215 817 572 1124 1082 368 614 547 1360 508 2118 -25 489 -106
887 -263 1289 -144 371 -333 669 -579 912 -439 433 -1010 687 -1683 749 -99 9
-473 11 -585 3z m-1223 -674 c43 -16 73 -37 116 -80 32 -33 66 -59 76 -59 39
0 200 -53 289 -95 168 -80 408 -252 574 -413 l78 -75 22 19 c13 10 52 46 88
80 388 363 802 546 1074 475 98 -26 150 -56 224 -129 137 -136 202 -351 202
-673 0 -182 -16 -328 -57 -537 -14 -73 -24 -134 -22 -135 2 -2 60 -23 129 -47
241 -83 472 -197 611 -302 278 -209 389 -434 334 -676 -14 -61 -14 -72 0 -111
62 -178 -60 -385 -248 -420 -49 -9 -75 -7 -144 11 -42 10 -46 9 -190 -65 -143
-72 -295 -134 -435 -177 l-67 -20 10 -33 c15 -51 57 -283 70 -387 18 -139 15
-395 -6 -513 -32 -184 -84 -302 -180 -405 -108 -117 -218 -157 -400 -149 -178
7 -353 76 -576 225 -107 72 -324 249 -393 320 l-39 41 -100 -90 c-137 -123
-245 -209 -352 -280 -99 -66 -285 -160 -355 -180 -34 -9 -58 -27 -101 -73 -71
-77 -133 -109 -219 -114 -171 -10 -326 130 -331 299 -1 35 -9 64 -21 81 -34
49 -78 157 -98 241 -54 228 -45 551 26 890 14 65 23 121 20 126 -3 5 -19 11
-36 15 -71 14 -316 114 -460 187 -297 151 -487 332 -562 535 -18 48 -22 80
-22 174 -1 108 1 120 32 190 60 140 177 269 354 391 120 82 374 204 548 263
80 27 146 50 148 52 2 1 -8 58 -22 126 -43 212 -59 352 -59 538 0 192 15 309
58 436 23 69 24 75 9 111 -26 62 -21 170 10 240 73 159 235 230 393 172z"/>
<path d="M4585 5790 c-123 -14 -292 -86 -460 -197 -105 -70 -288 -218 -362
-294 l-52 -54 81 -90 c103 -115 199 -235 319 -399 l96 -131 74 -7 c163 -16
461 -66 675 -115 20 -4 24 2 38 67 79 346 92 684 35 890 -67 245 -217 356
-444 330z"/>
<path d="M2676 5764 c-3 -9 -6 -28 -6 -42 0 -15 -11 -50 -24 -78 -65 -139
-198 -212 -340 -184 -33 6 -72 18 -84 27 -29 18 -32 16 -49 -49 -28 -108 -38
-277 -25 -435 15 -188 64 -479 85 -500 3 -2 56 7 119 21 161 36 392 74 530 88
l119 12 66 95 c85 122 242 317 348 436 l85 93 -81 76 c-222 209 -461 367 -653
432 -82 28 -82 28 -90 8z"/>
<path d="M3497 5018 c-102 -118 -269 -327 -287 -358 -7 -13 40 -15 394 -15
l403 0 -41 55 c-89 122 -241 307 -351 428 -10 11 -33 -10 -118 -110z"/>
<path d="M3290 4494 c-25 -2 -82 -6 -127 -10 l-82 -6 -85 -133 c-47 -73 -117
-188 -156 -256 -98 -172 -270 -513 -270 -536 0 -28 134 -295 250 -498 144
-253 257 -424 284 -430 87 -21 878 -21 993 0 27 5 41 21 104 118 40 62 102
162 137 222 84 142 302 570 302 591 0 48 -314 617 -461 835 -55 83 -60 87
-101 93 -52 7 -725 16 -788 10z m451 -238 c327 -70 559 -362 559 -706 0 -329
-217 -614 -530 -696 -86 -22 -244 -22 -330 0 -444 117 -663 623 -448 1039 63
123 182 238 308 301 148 73 293 93 441 62z"/>
<path d="M3523 4109 c-177 -30 -329 -144 -407 -304 -44 -92 -57 -150 -57 -254
1 -166 57 -296 176 -410 120 -114 238 -158 399 -148 240 13 429 167 500 406
20 69 21 227 1 301 -42 157 -149 287 -296 359 -113 55 -201 69 -316 50z"/>
<path d="M2715 4436 c-130 -21 -436 -84 -443 -91 -9 -8 132 -423 194 -571 l16
-37 70 134 c94 180 209 384 279 497 44 70 54 92 41 91 -9 0 -80 -11 -157 -23z"/>
<path d="M4320 4454 c0 -3 13 -24 28 -47 59 -87 193 -318 284 -488 l94 -177
59 150 c62 159 145 411 145 439 0 18 2 18 -224 65 -100 21 -353 64 -378 64 -5
0 -8 -3 -8 -6z"/>
<path d="M1960 4251 c-321 -114 -549 -245 -688 -395 -149 -162 -172 -354 -63
-524 66 -104 224 -234 401 -330 115 -63 415 -181 493 -194 15 -2 29 31 86 202
38 113 99 277 136 365 37 88 67 167 67 175 0 8 -30 87 -67 175 -66 158 -195
528 -195 559 0 24 -22 20 -170 -33z"/>
<path d="M5051 4193 c-45 -147 -109 -323 -181 -496 l-60 -144 40 -92 c57 -132
162 -417 200 -546 18 -60 33 -111 34 -112 4 -5 149 42 251 82 119 46 305 134
305 144 0 3 -11 33 -25 66 -65 157 1 333 154 413 54 27 73 32 134 32 50 0 85
-7 116 -20 24 -11 45 -20 47 -20 10 0 3 91 -11 145 -61 236 -362 455 -849 621
-55 19 -105 34 -111 34 -6 0 -26 -48 -44 -107z"/>
<path d="M4641 3207 c-96 -185 -179 -331 -262 -464 -32 -51 -53 -93 -46 -93
65 0 570 93 597 110 13 8 -65 255 -147 465 -29 76 -55 140 -56 141 -1 1 -40
-70 -86 -159z"/>
<path d="M2472 3344 c-20 -39 -131 -344 -167 -458 -27 -87 -33 -121 -25 -126
28 -17 526 -109 592 -110 14 0 9 14 -26 68 -65 100 -189 318 -282 491 -69 129
-84 150 -92 135z"/>
<path d="M2221 2573 c-32 -121 -64 -334 -76 -523 -8 -114 8 -297 36 -400 29
-109 28 -108 85 -64 85 65 157 83 251 64 71 -15 103 -31 155 -78 44 -40 98
-141 98 -184 0 -15 4 -29 8 -32 13 -8 200 87 297 151 107 71 231 169 343 273
l82 75 -77 85 c-105 118 -262 315 -347 437 l-71 101 -65 7 c-185 19 -629 96
-693 121 -12 4 -18 -4 -26 -33z"/>
<path d="M4959 2605 c-16 -16 -486 -97 -699 -120 l-55 -6 -73 -104 c-96 -135
-242 -318 -345 -429 l-81 -89 84 -79 c187 -173 432 -344 582 -404 158 -65 288
-79 402 -44 53 17 77 31 119 73 184 184 220 547 111 1097 -22 111 -28 123 -45
105z"/>
<path d="M3291 2339 c89 -116 259 -319 297 -352 19 -18 21 -16 93 65 107 120
319 385 319 399 0 2 -179 4 -399 4 l-398 0 88 -116z"/>
</g>
</svg>
