<?xml version="1.0" standalone="no"?>
<!DOCTYPE svg PUBLIC "-//W3C//DTD SVG 20010904//EN"
 "http://www.w3.org/TR/2001/REC-SVG-20010904/DTD/svg10.dtd">
<svg version="1.0" xmlns="http://www.w3.org/2000/svg"
 width="1500.000000pt" height="1500.000000pt" viewBox="0 0 1500.000000 1500.000000"
 preserveAspectRatio="xMidYMid meet">
<metadata>
Created by potrace 1.14, written by Peter Selinger 2001-2017
</metadata>
<g transform="translate(0.000000,1500.000000) scale(0.100000,-0.100000)"
fill="#000000" stroke="none">
<path d="M6620 14779 c-106 -59 -145 -83 -164 -101 -11 -10 -23 -18 -28 -18
-4 0 -16 -6 -25 -14 -10 -8 -56 -43 -103 -78 -89 -66 -288 -258 -330 -318 -13
-19 -27 -37 -30 -40 -16 -14 -60 -80 -60 -89 0 -6 -4 -11 -10 -11 -5 0 -10 -5
-10 -11 0 -6 -13 -29 -29 -52 -15 -23 -31 -52 -35 -64 -4 -13 -12 -23 -17 -23
-5 0 -9 -9 -9 -20 0 -11 -4 -20 -10 -20 -5 0 -10 -11 -10 -24 0 -13 -3 -26 -7
-28 -5 -1 -21 -41 -36 -88 -16 -47 -32 -94 -37 -105 -5 -11 -11 -38 -15 -60
-4 -22 -12 -65 -17 -95 -6 -30 -12 -124 -15 -207 -4 -148 -5 -153 -26 -157
-38 -8 -183 -18 -397 -27 -237 -11 -448 -24 -605 -38 -60 -5 -159 -14 -220
-20 -60 -5 -119 -12 -130 -16 -11 -3 -58 -10 -105 -16 -385 -46 -566 -73 -710
-104 -41 -9 -100 -20 -130 -26 -30 -5 -80 -14 -110 -20 -30 -6 -76 -13 -102
-16 -27 -3 -48 -9 -48 -14 0 -5 -14 -9 -32 -9 -17 0 -54 -7 -82 -15 -89 -26
-180 -47 -218 -52 -21 -3 -38 -9 -38 -14 0 -5 -18 -9 -39 -9 -22 0 -43 -4 -46
-10 -3 -5 -19 -10 -35 -10 -16 0 -32 -4 -35 -10 -3 -5 -16 -10 -28 -10 -24 -1
-123 -33 -134 -44 -3 -3 -15 -6 -26 -6 -20 0 -140 -36 -169 -51 -10 -5 -23 -9
-30 -9 -13 0 -133 -45 -160 -60 -10 -6 -25 -10 -33 -10 -8 0 -23 -4 -33 -9 -9
-5 -28 -13 -42 -19 -14 -5 -62 -26 -107 -46 -45 -20 -89 -36 -98 -36 -8 0 -15
-4 -15 -10 0 -5 -7 -10 -15 -10 -8 0 -30 -9 -50 -20 -20 -11 -42 -20 -50 -20
-8 0 -15 -4 -15 -10 0 -5 -11 -12 -25 -16 -14 -3 -25 -10 -25 -15 0 -5 -6 -9
-13 -9 -18 0 -67 -24 -67 -32 0 -5 -11 -8 -25 -8 -14 0 -25 -4 -25 -10 0 -5
-6 -10 -14 -10 -7 0 -18 -6 -24 -13 -6 -7 -33 -24 -61 -37 -28 -14 -51 -28
-51 -32 0 -5 -7 -8 -15 -8 -8 0 -15 -4 -15 -10 0 -5 -5 -10 -11 -10 -9 0 -72
-42 -89 -60 -3 -3 -18 -12 -35 -20 -16 -8 -40 -24 -51 -35 -12 -11 -35 -30
-50 -42 -16 -12 -38 -30 -49 -40 -11 -10 -37 -31 -57 -46 -47 -35 -182 -170
-217 -217 -14 -19 -30 -40 -36 -46 -5 -6 -19 -23 -30 -38 -11 -16 -26 -34 -32
-41 -7 -8 -13 -18 -13 -24 0 -6 -4 -11 -10 -11 -5 0 -10 -5 -10 -10 0 -6 -16
-34 -35 -63 -19 -28 -35 -57 -35 -64 0 -7 -4 -13 -10 -13 -5 0 -10 -9 -10 -19
0 -11 -4 -23 -10 -26 -5 -3 -10 -15 -10 -26 0 -10 -4 -19 -10 -19 -5 0 -10 -9
-10 -20 0 -11 -4 -28 -9 -38 -24 -46 -61 -161 -61 -190 0 -11 -4 -24 -10 -27
-5 -3 -10 -23 -10 -44 0 -20 -4 -41 -9 -46 -5 -6 -12 -30 -15 -55 -2 -25 -12
-85 -20 -135 -27 -163 -16 -605 15 -639 5 -6 9 -27 9 -47 0 -21 5 -41 10 -44
6 -3 10 -16 10 -28 0 -24 22 -93 33 -103 4 -4 7 -14 7 -21 0 -8 20 -56 45
-106 25 -51 45 -96 45 -101 0 -4 6 -14 13 -21 29 -33 37 -45 37 -55 0 -5 5
-10 10 -10 6 0 10 -6 10 -13 0 -7 8 -22 18 -33 11 -11 21 -25 23 -31 7 -22 83
-107 179 -203 108 -108 144 -139 183 -159 15 -8 27 -18 27 -23 0 -4 5 -8 10
-8 11 0 25 -10 64 -47 20 -18 23 -28 19 -70 -3 -26 -9 -52 -14 -57 -5 -6 -9
-29 -9 -53 0 -24 -4 -43 -10 -43 -5 0 -10 -14 -10 -32 0 -17 -4 -45 -10 -62
-5 -17 -19 -76 -30 -131 -32 -150 -40 -193 -69 -357 -6 -29 -15 -75 -20 -103
-6 -27 -15 -84 -21 -125 -7 -41 -16 -82 -21 -92 -5 -9 -9 -39 -9 -65 0 -27 -4
-53 -9 -59 -5 -5 -12 -36 -15 -69 -3 -33 -10 -91 -16 -130 -5 -38 -13 -99 -16
-135 -3 -36 -9 -74 -13 -85 -15 -36 -61 -425 -81 -685 -28 -350 -34 -526 -34
-940 0 -477 13 -728 53 -1030 6 -41 14 -107 19 -146 5 -39 12 -75 15 -81 6
-10 19 -75 52 -263 4 -19 10 -44 15 -55 8 -19 13 -43 27 -125 3 -19 9 -39 13
-45 9 -11 49 -144 57 -188 3 -15 9 -30 14 -33 5 -3 9 -16 9 -29 0 -13 5 -27
10 -30 6 -3 10 -15 10 -25 0 -10 6 -31 14 -47 22 -43 56 -134 56 -149 0 -8 5
-14 10 -14 6 0 10 -9 10 -19 0 -11 10 -39 21 -63 12 -23 29 -59 38 -78 9 -19
19 -36 24 -38 4 -2 7 -12 7 -23 0 -10 5 -19 10 -19 6 0 10 -9 10 -19 0 -11 5
-23 10 -26 6 -3 10 -15 10 -25 0 -10 4 -20 8 -22 5 -1 20 -24 34 -49 46 -82
53 -94 59 -99 3 -3 12 -20 20 -37 8 -18 16 -33 19 -33 3 0 14 -16 24 -35 11
-19 23 -35 28 -35 4 0 8 -6 8 -12 0 -7 11 -26 25 -42 14 -16 25 -33 25 -37 0
-4 6 -14 13 -21 7 -7 26 -31 42 -53 17 -22 37 -48 45 -58 8 -10 23 -28 32 -40
68 -85 321 -343 398 -407 24 -19 51 -43 61 -52 11 -10 21 -18 24 -18 3 0 17
-11 31 -25 14 -14 29 -25 33 -25 4 0 21 -11 37 -25 16 -15 41 -33 57 -43 15
-9 27 -20 27 -24 0 -4 5 -8 11 -8 6 0 40 -20 75 -45 34 -25 67 -45 73 -45 6 0
11 -4 11 -10 0 -5 7 -10 15 -10 8 0 15 -4 15 -10 0 -5 9 -10 19 -10 11 0 21
-4 23 -8 6 -16 202 -122 224 -122 8 0 14 -3 14 -8 0 -8 41 -30 98 -54 17 -7
32 -16 32 -20 0 -5 11 -8 25 -8 14 0 25 -4 25 -10 0 -5 6 -10 14 -10 13 0 151
-59 188 -80 10 -6 27 -10 38 -10 11 0 20 -4 20 -10 0 -5 8 -10 18 -10 10 0 36
-8 58 -19 21 -10 54 -22 71 -26 18 -3 35 -11 38 -16 4 -5 17 -9 31 -9 13 0 24
-4 24 -10 0 -5 13 -10 29 -10 17 0 33 -5 36 -10 3 -6 17 -10 30 -10 13 0 27
-5 30 -10 3 -6 17 -10 31 -10 13 0 32 -4 42 -9 46 -24 161 -61 190 -61 11 0
24 -5 27 -10 3 -6 19 -10 35 -10 16 0 32 -4 35 -10 3 -5 21 -10 40 -10 19 0
36 -4 39 -9 3 -4 34 -14 68 -21 35 -7 75 -19 90 -27 15 -7 40 -13 57 -13 16 0
33 -4 36 -10 3 -5 21 -10 40 -10 19 0 37 -4 40 -10 3 -5 19 -10 36 -10 16 0
37 -4 47 -9 19 -11 177 -51 230 -58 18 -3 35 -9 38 -14 3 -5 20 -9 39 -9 19 0
37 -4 40 -10 3 -5 21 -10 40 -10 19 0 37 -4 40 -10 3 -5 19 -10 36 -10 16 0
37 -4 47 -9 9 -5 44 -16 77 -26 33 -9 70 -21 83 -26 13 -5 34 -9 47 -9 13 0
27 -4 30 -10 3 -5 19 -10 36 -10 16 0 29 -4 29 -10 0 -5 11 -10 25 -10 14 0
33 -4 43 -9 34 -18 147 -61 160 -61 6 0 12 -4 12 -10 0 -5 11 -10 25 -10 14 0
25 -4 25 -10 0 -5 9 -10 20 -10 11 0 20 -4 20 -10 0 -5 6 -10 14 -10 18 0 76
-32 76 -42 0 -5 9 -8 20 -8 11 0 20 -4 20 -10 0 -5 5 -10 10 -10 6 0 20 -9 32
-20 12 -11 28 -20 35 -20 7 0 13 -4 13 -10 0 -5 20 -28 45 -52 25 -24 45 -49
45 -55 0 -7 5 -13 10 -13 6 0 10 -7 10 -15 0 -8 5 -15 10 -15 6 0 10 -6 10
-13 0 -8 20 -31 46 -53 25 -21 51 -45 59 -52 7 -6 20 -12 29 -12 8 0 17 -4 20
-9 3 -5 22 -12 41 -15 19 -3 51 -9 71 -12 52 -9 171 25 224 65 47 35 100 92
100 108 0 7 5 13 10 13 6 0 10 6 10 13 0 18 133 142 169 158 17 8 31 16 31 19
0 3 20 14 45 25 25 11 45 23 45 28 0 4 9 7 20 7 11 0 20 5 20 10 0 6 7 10 15
10 8 0 23 4 33 9 31 16 134 56 187 72 22 7 44 17 49 21 6 4 23 8 38 8 15 0 28
5 28 10 0 6 14 10 30 10 17 0 38 4 48 9 30 15 88 31 113 31 14 0 29 4 35 9 9
10 76 29 132 38 18 3 35 9 38 14 3 5 23 9 45 9 21 0 39 5 39 10 0 6 18 10 39
10 22 0 42 4 45 9 3 5 23 11 43 14 35 5 189 46 223 60 18 7 69 16 125 23 37 5
44 1 90 -40 28 -25 54 -46 58 -46 4 0 18 -9 30 -20 32 -29 154 -110 167 -110
5 0 10 -4 10 -8 0 -5 16 -14 35 -22 19 -8 35 -16 35 -19 0 -3 29 -19 65 -36
36 -16 65 -33 65 -37 0 -5 8 -8 18 -8 10 0 37 -9 60 -20 22 -11 48 -20 57 -20
8 0 15 -4 15 -10 0 -5 8 -10 18 -10 10 0 27 -7 38 -15 10 -8 29 -15 41 -15 12
0 24 -4 27 -9 3 -5 18 -11 33 -14 16 -3 46 -11 68 -17 22 -6 56 -15 75 -20 19
-5 62 -16 95 -25 33 -9 84 -21 113 -26 28 -5 78 -14 110 -20 187 -34 399 -47
922 -58 586 -11 802 -19 860 -32 25 -5 66 -12 93 -16 26 -3 47 -9 47 -14 0 -5
13 -9 29 -9 17 0 33 -5 36 -10 3 -6 13 -10 21 -10 8 0 25 -9 37 -21 12 -12 38
-33 57 -47 19 -15 37 -29 40 -32 3 -3 19 -11 35 -19 17 -7 38 -17 47 -22 25
-13 198 -11 198 1 0 6 9 10 20 10 18 0 57 17 70 30 3 3 16 11 30 18 28 14 100
112 100 136 0 8 5 18 10 21 6 3 10 15 10 26 0 11 6 27 13 34 27 31 37 44 37
50 0 8 66 71 115 110 21 17 44 36 51 43 7 6 17 12 23 12 6 0 11 5 11 10 0 6 7
10 15 10 8 0 25 9 37 20 28 24 137 90 149 90 5 0 9 5 9 10 0 6 7 10 15 10 9 0
39 15 68 33 29 18 67 40 85 48 17 7 32 17 32 21 0 5 9 8 20 8 11 0 20 5 20 10
0 6 9 10 19 10 11 0 23 4 26 10 3 5 23 17 43 27 20 9 39 20 42 23 3 4 20 13
38 21 17 8 32 17 32 21 0 5 9 8 19 8 11 0 23 5 26 10 4 6 24 18 46 27 21 8 39
18 39 22 0 4 16 13 35 21 19 8 35 17 35 22 0 4 9 8 20 8 11 0 20 5 20 10 0 6
5 10 11 10 6 0 25 11 43 25 18 14 38 25 44 25 7 0 12 5 12 10 0 6 9 10 20 10
11 0 20 5 20 10 0 6 7 10 15 10 8 0 15 5 15 10 0 6 7 10 15 10 9 0 21 5 28 10
56 47 74 60 85 60 6 0 12 5 12 10 0 6 6 10 14 10 8 0 16 3 18 8 2 4 30 25 63
47 33 22 62 43 63 48 2 4 10 7 17 7 7 0 15 3 17 8 3 7 51 46 108 88 100 72
430 395 430 420 0 2 9 15 20 27 61 67 90 102 90 111 0 6 14 27 30 46 16 19 30
38 30 42 0 4 6 13 13 20 14 16 28 40 75 128 19 36 38 67 43 68 5 2 9 10 9 18
0 7 9 29 20 49 11 20 20 42 20 50 0 8 5 15 10 15 6 0 10 11 10 25 0 14 3 25 8
25 4 0 16 27 26 61 11 33 23 62 28 65 4 3 8 16 8 29 0 13 5 27 10 30 6 3 10
19 10 35 0 16 4 31 9 34 5 3 11 20 14 38 8 45 22 109 43 193 29 120 58 428 57
610 0 158 -32 568 -47 605 -3 8 -11 44 -16 80 -6 36 -15 90 -21 120 -5 30 -12
73 -15 95 -3 22 -9 49 -14 60 -5 11 -11 36 -14 55 -8 58 -23 120 -51 215 -15
50 -29 107 -32 128 -3 20 -9 37 -14 37 -5 0 -9 14 -9 30 0 17 -4 38 -9 48 -5
9 -14 37 -21 62 -13 49 -37 115 -51 142 -5 10 -9 29 -9 43 0 14 -4 25 -10 25
-5 0 -10 14 -10 30 0 17 -4 30 -10 30 -5 0 -10 9 -10 20 0 10 -5 32 -11 47
-28 67 -37 90 -49 123 -16 45 -30 80 -41 102 -5 10 -9 25 -9 33 0 8 -4 23 -9
33 -21 38 -60 130 -73 170 -7 23 -16 42 -20 42 -5 0 -8 11 -8 25 0 14 -4 25
-10 25 -5 0 -10 7 -10 16 0 9 -16 51 -36 93 -19 42 -40 87 -46 101 -6 14 -14
33 -19 42 -5 10 -9 25 -9 33 0 8 -4 15 -10 15 -5 0 -10 5 -10 11 0 11 -29 74
-146 314 -30 61 -54 115 -54 122 0 6 -3 13 -7 15 -5 2 -16 20 -26 41 -16 36
-16 41 -1 73 9 19 20 34 25 34 5 0 9 6 9 14 0 8 4 16 9 18 23 9 161 257 161
290 0 8 7 23 15 34 8 10 15 29 15 41 0 12 5 25 10 28 6 3 10 21 10 40 0 19 4
36 9 39 31 19 31 487 0 521 -5 5 -9 26 -9 46 0 21 -4 40 -9 43 -5 3 -11 18
-14 33 -7 40 -51 154 -78 205 -5 10 -9 24 -9 32 0 8 -3 16 -7 18 -7 3 -43 67
-77 135 -6 13 -14 23 -18 23 -5 0 -8 5 -8 11 0 15 -53 90 -97 137 -21 22 -45
48 -54 58 -14 17 -59 57 -133 118 -16 13 -41 30 -55 38 -14 7 -28 15 -31 19
-16 17 -168 99 -185 99 -8 0 -15 5 -15 10 0 6 -9 10 -19 10 -11 0 -23 5 -26
10 -3 6 -13 10 -20 10 -8 0 -38 11 -67 24 -29 13 -73 29 -98 36 -25 6 -53 16
-62 21 -10 5 -31 9 -48 9 -16 0 -30 5 -30 10 0 6 -17 10 -38 10 -21 0 -42 3
-46 8 -8 8 -98 28 -191 43 -237 37 -390 48 -723 55 -145 3 -262 8 -260 12 29
59 43 82 50 82 4 0 8 6 8 14 0 8 3 16 8 18 10 4 52 87 52 103 0 7 3 15 8 17
12 5 42 68 42 89 0 10 5 19 10 19 6 0 10 11 10 24 0 14 5 28 10 31 6 3 10 19
10 35 0 16 4 31 9 34 5 3 11 23 14 43 3 21 13 72 23 113 25 109 25 526 0 655
-10 50 -20 108 -23 130 -3 22 -9 44 -14 50 -5 5 -9 24 -9 41 0 18 -4 36 -10
39 -5 3 -10 19 -10 35 0 16 -4 32 -10 35 -5 3 -10 16 -10 29 0 21 -15 61 -41
108 -5 10 -9 23 -9 28 0 6 -9 30 -20 52 -11 23 -20 48 -20 55 0 7 -3 13 -8 13
-4 0 -12 9 -17 19 -32 62 -69 121 -77 121 -4 0 -8 7 -8 16 0 9 -8 24 -18 33
-10 9 -31 34 -47 56 -38 51 -289 305 -302 305 -5 0 -29 18 -53 40 -23 22 -51
42 -61 45 -11 4 -19 11 -19 16 0 5 -6 9 -14 9 -8 0 -16 3 -18 8 -5 11 -107 82
-118 82 -6 0 -10 5 -10 10 0 6 -9 10 -20 10 -11 0 -20 4 -20 9 0 5 -25 21 -55
37 -30 16 -55 32 -55 37 0 4 -9 7 -19 7 -11 0 -21 3 -23 8 -4 10 -230 122
-245 122 -7 0 -13 5 -13 10 0 6 -11 10 -25 10 -14 0 -25 5 -25 10 0 6 -9 10
-20 10 -11 0 -20 5 -20 10 0 6 -7 10 -16 10 -14 0 -101 36 -146 61 -10 5 -27
9 -38 9 -11 0 -20 5 -20 10 0 6 -10 10 -23 10 -13 0 -27 4 -32 9 -6 5 -46 21
-90 35 -44 15 -88 31 -97 36 -10 6 -29 10 -43 10 -14 0 -25 5 -25 10 0 6 -13
10 -29 10 -17 0 -33 5 -36 10 -3 6 -19 10 -35 10 -16 0 -31 4 -34 9 -3 5 -23
12 -43 16 -21 4 -42 10 -48 15 -9 7 -35 13 -112 27 -18 3 -33 9 -33 14 0 5
-18 9 -39 9 -22 0 -42 4 -45 9 -3 5 -20 11 -38 14 -18 3 -80 17 -138 32 -147
37 -188 46 -240 52 -25 3 -49 9 -54 14 -6 5 -28 9 -51 9 -23 0 -45 4 -50 9 -6
5 -32 11 -60 14 -27 3 -84 13 -125 22 -41 9 -97 19 -125 21 -27 3 -59 9 -70
14 -11 5 -45 11 -75 14 -30 3 -86 10 -125 16 -38 5 -106 14 -150 19 -144 16
-250 31 -270 37 -11 3 -69 10 -130 15 -60 5 -162 14 -225 20 -223 20 -449 33
-990 57 l-165 7 1 100 c1 55 7 123 13 150 7 28 15 65 18 83 3 17 9 32 14 32 5
0 9 7 9 16 0 15 14 45 47 104 8 14 17 33 20 43 3 9 9 17 14 17 5 0 9 9 9 20 0
11 4 20 8 20 4 0 15 12 24 28 9 15 39 52 67 82 28 30 50 58 51 63 0 4 5 7 11
7 6 0 23 13 37 28 15 15 45 41 67 57 22 17 47 38 56 47 9 10 19 18 22 18 6 0
73 42 92 58 6 4 25 15 43 22 17 8 32 18 32 22 0 5 6 8 13 8 20 0 110 93 135
139 12 24 22 55 22 70 0 15 5 32 11 38 15 15 -5 193 -22 193 -5 0 -9 9 -9 20
0 11 -4 20 -10 20 -5 0 -10 4 -10 10 0 21 -77 100 -97 100 -7 0 -13 4 -13 9 0
20 -70 31 -194 31 -127 -1 -133 -2 -186 -31z m205 -5317 c311 -17 528 -31 550
-37 11 -3 72 -10 135 -16 388 -36 480 -46 747 -78 46 -5 87 -12 92 -16 5 -3
47 -10 93 -16 46 -5 112 -14 148 -20 36 -5 90 -12 120 -15 30 -3 64 -9 75 -14
11 -5 43 -11 70 -14 70 -7 167 -22 193 -30 15 -5 22 -15 22 -31 0 -13 4 -35
10 -49 12 -32 3 -56 -21 -56 -10 0 -33 -6 -51 -14 -33 -14 -121 -42 -208 -66
-25 -6 -52 -15 -60 -20 -9 -4 -30 -11 -48 -14 -17 -4 -34 -12 -37 -17 -4 -5
-17 -9 -30 -9 -13 0 -27 -4 -30 -10 -3 -5 -17 -10 -30 -10 -13 0 -27 -4 -30
-10 -3 -5 -17 -10 -30 -10 -13 0 -27 -4 -30 -10 -3 -5 -17 -10 -30 -10 -13 0
-26 -4 -29 -8 -3 -4 -28 -14 -56 -22 -28 -8 -56 -20 -62 -27 -6 -7 -21 -13
-34 -13 -12 0 -26 -4 -29 -10 -3 -5 -17 -10 -31 -10 -13 0 -24 -4 -24 -10 0
-5 -9 -10 -20 -10 -11 0 -28 -4 -38 -9 -9 -5 -30 -14 -47 -21 -16 -7 -42 -19
-57 -26 -14 -8 -33 -14 -42 -14 -9 0 -16 -4 -16 -10 0 -5 -11 -10 -25 -10 -14
0 -25 -4 -25 -10 0 -5 -7 -10 -15 -10 -8 0 -23 -4 -33 -9 -9 -5 -48 -24 -87
-41 -38 -18 -83 -39 -99 -46 -16 -8 -35 -14 -43 -14 -7 0 -13 -4 -13 -10 0 -5
-5 -10 -12 -10 -15 0 -122 -52 -126 -62 -2 -4 -12 -8 -23 -8 -10 0 -19 -4 -19
-10 0 -5 -6 -10 -12 -10 -16 0 -102 -42 -106 -52 -2 -5 -12 -8 -22 -8 -10 0
-21 -4 -25 -9 -8 -13 -95 -61 -111 -61 -8 0 -14 -4 -14 -10 0 -5 -4 -10 -10
-10 -5 0 -41 -20 -80 -45 -39 -25 -75 -45 -80 -45 -6 0 -10 -4 -10 -10 0 -5
-6 -10 -13 -10 -7 0 -23 -9 -35 -20 -12 -11 -24 -20 -27 -20 -4 0 -21 -11 -39
-25 -18 -14 -38 -25 -44 -25 -7 0 -12 -4 -12 -8 0 -5 -12 -15 -27 -23 -16 -8
-37 -22 -48 -32 -11 -10 -32 -26 -47 -35 -16 -9 -28 -20 -28 -24 0 -4 -6 -8
-14 -8 -8 0 -16 -3 -18 -8 -1 -4 -16 -18 -33 -30 -40 -31 -142 -120 -177 -154
-15 -16 -30 -28 -33 -28 -5 0 -35 -31 -110 -115 -27 -30 -65 -72 -83 -92 -18
-21 -41 -50 -50 -65 -9 -15 -20 -28 -24 -28 -4 0 -8 -7 -8 -15 0 -8 -4 -15 -9
-15 -5 0 -14 -13 -21 -30 -7 -16 -16 -30 -21 -30 -5 0 -11 -11 -15 -25 -3 -14
-10 -25 -14 -25 -4 0 -10 -8 -13 -17 -3 -10 -12 -29 -20 -43 -47 -81 -107
-239 -107 -283 0 -15 -4 -27 -9 -27 -13 0 -22 -120 -23 -290 0 -172 10 -320
23 -320 5 0 9 -16 9 -36 0 -34 27 -133 55 -199 7 -16 17 -41 22 -55 22 -54 58
-125 66 -128 4 -2 7 -8 7 -13 0 -10 65 -106 87 -127 7 -7 13 -17 13 -20 0 -11
125 -137 167 -168 21 -16 45 -37 54 -46 9 -10 20 -18 24 -18 5 0 23 -11 41
-25 18 -14 37 -25 43 -25 6 0 11 -4 11 -8 0 -5 16 -14 35 -22 19 -8 35 -17 35
-22 0 -4 6 -8 13 -8 7 0 32 -9 55 -20 22 -11 45 -20 50 -20 18 0 24 -47 33
-290 15 -373 42 -740 55 -762 3 -5 11 -56 16 -111 5 -56 14 -136 19 -177 5
-41 12 -102 15 -135 3 -33 10 -64 15 -70 5 -5 9 -30 9 -56 0 -25 4 -59 9 -75
5 -16 14 -63 20 -104 7 -41 18 -96 26 -121 8 -26 15 -60 15 -76 0 -16 4 -33 9
-38 5 -6 11 -28 14 -50 3 -22 11 -62 17 -90 6 -27 13 -63 16 -80 3 -16 9 -39
13 -50 20 -52 41 -125 41 -144 0 -11 5 -21 10 -21 6 0 10 -14 10 -30 0 -17 4
-38 9 -48 5 -9 15 -37 21 -62 7 -25 16 -54 20 -65 4 -11 15 -38 23 -60 9 -22
21 -58 28 -80 7 -22 17 -44 21 -49 4 -6 8 -18 8 -28 0 -10 4 -26 9 -36 5 -9
17 -35 26 -57 9 -22 26 -58 36 -81 10 -22 19 -46 19 -52 0 -7 5 -12 10 -12 6
0 10 -9 10 -19 0 -11 5 -23 10 -26 6 -3 10 -15 10 -26 0 -10 5 -19 10 -19 6 0
10 -9 10 -20 0 -11 5 -20 10 -20 6 0 10 -8 10 -19 0 -10 7 -24 15 -31 8 -7 15
-19 15 -26 0 -8 5 -14 10 -14 6 0 10 -9 10 -20 0 -11 5 -20 10 -20 6 0 10 -6
10 -13 0 -18 24 -67 33 -67 4 0 7 -7 7 -15 0 -8 3 -15 8 -15 8 0 42 -57 42
-72 0 -20 -34 -37 -72 -38 -21 0 -38 -4 -38 -10 0 -5 -18 -10 -39 -10 -22 0
-43 -4 -46 -10 -3 -5 -19 -10 -36 -10 -16 0 -37 -4 -47 -9 -16 -8 -74 -25
-172 -51 -25 -7 -55 -16 -68 -21 -13 -5 -34 -9 -47 -9 -13 0 -27 -5 -30 -10
-3 -5 -17 -10 -31 -10 -13 0 -32 -4 -42 -9 -9 -5 -43 -17 -74 -26 -32 -9 -60
-21 -64 -26 -3 -5 -16 -9 -29 -9 -13 0 -27 -4 -30 -10 -3 -5 -17 -10 -31 -10
-13 0 -24 -4 -24 -10 0 -5 -8 -10 -18 -10 -19 0 -55 -15 -176 -76 -38 -19 -75
-34 -83 -34 -7 0 -13 -4 -13 -10 0 -5 -9 -10 -19 -10 -11 0 -21 -3 -23 -7 -3
-9 -84 -63 -93 -63 -3 0 -15 -9 -27 -20 -12 -11 -28 -20 -35 -20 -7 0 -13 -4
-13 -10 0 -17 -35 -11 -57 10 -12 10 -47 36 -80 56 -32 21 -59 41 -61 46 -2 4
-10 8 -17 8 -7 0 -43 16 -79 35 -37 19 -74 39 -84 43 -85 42 -109 52 -120 52
-7 0 -20 4 -30 9 -31 16 -134 56 -187 72 -22 7 -44 17 -50 21 -5 4 -21 8 -36
8 -15 0 -31 5 -34 10 -3 6 -19 10 -34 10 -15 0 -31 4 -36 8 -6 5 -37 15 -70
22 -33 8 -71 20 -85 27 -14 7 -37 13 -52 13 -16 0 -28 5 -28 10 0 6 -18 10
-39 10 -22 0 -42 4 -45 9 -3 5 -20 11 -38 14 -18 4 -49 9 -68 12 -19 4 -44 10
-55 15 -11 5 -31 11 -45 13 -14 3 -70 17 -125 32 -55 15 -117 30 -137 32 -21
3 -38 9 -38 14 0 5 -18 9 -39 9 -22 0 -43 4 -46 10 -3 5 -16 10 -27 10 -12 0
-35 4 -52 9 -17 5 -58 18 -91 27 -33 10 -64 22 -70 26 -5 4 -24 8 -42 8 -18 0
-33 5 -33 10 0 6 -9 10 -20 10 -24 0 -139 34 -188 56 -18 8 -42 14 -52 14 -11
0 -20 5 -20 10 0 6 -13 10 -28 10 -15 0 -32 4 -37 8 -6 4 -28 14 -50 21 -49
15 -67 22 -125 49 -25 11 -57 24 -73 27 -15 4 -30 11 -33 16 -3 5 -14 9 -25 9
-10 0 -19 5 -19 10 0 6 -7 10 -15 10 -8 0 -23 4 -33 9 -9 5 -71 35 -137 67
-66 32 -121 62 -123 66 -2 5 -12 8 -23 8 -10 0 -19 4 -19 8 0 4 -25 21 -55 37
-30 15 -55 32 -55 37 0 4 -9 8 -20 8 -11 0 -20 5 -20 10 0 6 -6 10 -14 10 -8
0 -16 3 -18 8 -1 4 -30 25 -63 47 -33 21 -66 45 -73 52 -7 7 -16 13 -20 13 -4
0 -20 13 -37 28 -16 15 -44 38 -62 50 -92 65 -337 310 -417 418 -17 21 -38 46
-48 55 -10 9 -18 21 -18 28 0 6 -4 11 -10 11 -5 0 -10 7 -10 15 0 8 -4 15 -10
15 -5 0 -10 5 -10 10 0 6 -5 16 -10 23 -45 53 -60 73 -60 80 0 5 -13 28 -30
52 -17 24 -30 47 -30 51 0 4 -6 15 -14 23 -20 24 -76 130 -76 146 0 7 -4 15
-8 17 -11 4 -82 155 -82 173 0 8 -4 15 -10 15 -5 0 -10 11 -10 25 0 14 -4 25
-10 25 -5 0 -10 8 -10 18 0 10 -6 26 -13 37 -7 11 -19 40 -27 65 -7 25 -17 49
-22 55 -4 5 -8 22 -8 37 0 15 -4 28 -10 28 -5 0 -10 13 -10 29 0 17 -4 32 -8
35 -5 3 -14 31 -21 63 -7 32 -19 73 -27 91 -8 18 -14 44 -14 57 0 13 -5 27
-10 30 -5 3 -10 23 -10 44 0 20 -4 41 -9 47 -9 9 -16 50 -27 149 -3 28 -10 54
-15 60 -5 5 -9 25 -9 45 0 19 -5 53 -11 75 -20 79 -45 313 -60 585 -20 346
-12 843 20 1245 19 234 30 340 35 355 4 9 11 56 17 105 17 155 29 248 40 320
5 39 12 99 15 135 3 36 10 69 15 74 5 6 9 26 9 45 0 20 6 65 15 101 8 36 19
99 26 140 6 41 15 85 20 98 5 13 9 43 9 67 0 24 5 47 10 50 6 3 10 28 10 55 0
27 4 51 9 54 4 3 11 27 15 53 8 64 22 135 41 213 19 73 33 146 42 205 3 22 9
44 14 49 5 6 9 21 9 35 0 36 24 101 41 112 8 5 26 9 42 9 15 0 35 4 45 9 18 9
79 26 150 42 23 5 62 14 87 19 25 6 66 15 93 21 26 5 63 12 82 15 19 3 42 8
50 11 20 9 114 32 175 43 28 6 73 15 100 21 28 6 70 13 95 16 25 3 49 9 54 14
6 5 29 9 53 9 23 0 52 4 65 9 13 5 57 14 98 21 41 6 93 16 115 22 46 12 138
27 210 34 28 3 59 9 70 14 11 5 45 11 75 14 30 3 84 10 120 15 36 6 102 15
148 20 46 6 87 13 93 16 5 4 48 11 97 16 48 6 123 15 167 20 126 15 322 35
580 58 66 6 127 14 135 17 18 7 272 22 563 33 119 4 220 11 224 15 10 10 1102
0 1338 -12z m6299 -2608 c9 -3 16 -15 16 -25 0 -10 4 -19 9 -19 5 0 11 -8 15
-17 3 -10 10 -25 15 -33 5 -8 16 -30 23 -47 7 -18 16 -33 20 -33 5 0 8 -9 8
-20 0 -11 5 -20 10 -20 6 0 10 -11 10 -25 0 -14 3 -25 8 -25 4 0 13 -15 20
-32 7 -18 18 -40 23 -48 5 -8 14 -25 19 -38 5 -13 21 -48 35 -78 14 -30 25
-61 25 -69 0 -8 5 -15 10 -15 6 0 10 -4 10 -10 0 -5 16 -42 35 -81 19 -40 35
-81 35 -91 0 -10 5 -18 10 -18 6 0 10 -7 10 -14 0 -8 11 -36 25 -62 14 -26 25
-51 25 -56 0 -5 9 -28 20 -50 11 -23 20 -50 20 -60 0 -10 5 -18 10 -18 6 0 10
-8 10 -18 0 -10 9 -37 20 -60 11 -22 20 -47 20 -54 0 -8 6 -22 13 -33 7 -11
19 -40 27 -65 7 -25 17 -49 22 -55 4 -5 8 -22 8 -37 0 -15 5 -28 10 -28 6 0
10 -11 10 -24 0 -14 5 -28 10 -31 6 -3 10 -16 10 -29 0 -12 7 -31 15 -42 8
-10 15 -31 15 -46 0 -15 5 -30 10 -33 6 -3 10 -17 10 -30 0 -13 5 -27 10 -30
6 -3 10 -19 10 -35 0 -16 5 -32 10 -35 6 -3 10 -19 10 -34 0 -15 4 -31 8 -37
5 -5 14 -36 21 -69 7 -33 19 -75 27 -93 8 -18 14 -46 14 -62 0 -16 5 -32 10
-35 6 -3 10 -25 10 -49 0 -23 4 -46 9 -52 5 -5 11 -27 14 -49 3 -22 12 -80 21
-130 9 -49 21 -119 27 -155 20 -119 32 -293 32 -470 0 -198 -7 -304 -28 -405
-8 -38 -19 -97 -25 -130 -7 -33 -16 -68 -21 -77 -5 -10 -9 -29 -9 -43 0 -14
-4 -33 -9 -43 -5 -9 -17 -43 -26 -74 -9 -32 -21 -60 -26 -64 -5 -3 -9 -12 -9
-21 0 -18 -129 -283 -139 -283 -3 0 -12 -15 -20 -32 -8 -18 -17 -35 -21 -38
-3 -3 -23 -30 -45 -60 -22 -30 -43 -56 -47 -58 -5 -2 -8 -8 -8 -13 0 -24 -310
-331 -366 -362 -10 -5 -30 -23 -47 -38 -16 -16 -33 -29 -37 -29 -4 0 -20 -11
-35 -24 -15 -13 -40 -30 -54 -38 -14 -7 -28 -16 -31 -19 -3 -3 -30 -22 -60
-42 -30 -20 -60 -41 -67 -47 -7 -5 -17 -10 -23 -10 -6 0 -20 -8 -31 -19 -11
-10 -37 -27 -59 -37 -22 -10 -40 -22 -40 -25 0 -3 -16 -11 -35 -19 -19 -8 -35
-17 -35 -22 0 -4 -9 -8 -20 -8 -11 0 -20 -4 -20 -9 0 -5 -17 -16 -37 -25 -21
-9 -58 -30 -83 -45 -25 -16 -53 -30 -62 -30 -10 -1 -18 -5 -18 -11 0 -5 -9
-10 -20 -10 -11 0 -20 -4 -20 -8 0 -4 -35 -26 -77 -47 -43 -22 -79 -43 -81
-47 -2 -5 -10 -8 -18 -8 -8 0 -20 -5 -27 -10 -20 -17 -129 -80 -138 -80 -5 0
-9 -4 -9 -10 0 -5 -9 -10 -20 -10 -11 0 -20 -4 -20 -10 0 -5 -5 -10 -12 -10
-6 0 -26 -11 -44 -25 -18 -14 -37 -25 -43 -25 -6 0 -11 -4 -11 -10 0 -5 -7
-10 -15 -10 -8 0 -15 -4 -15 -10 0 -5 -6 -10 -13 -10 -7 0 -30 -16 -52 -35
-22 -19 -44 -35 -49 -35 -5 0 -16 -8 -25 -18 -9 -9 -34 -31 -56 -47 -22 -16
-64 -54 -93 -83 -49 -49 -56 -52 -88 -46 -19 3 -34 10 -34 15 0 5 -15 9 -34 9
-19 0 -38 5 -41 10 -3 6 -25 10 -49 10 -23 0 -46 4 -52 9 -5 5 -34 11 -64 14
-30 2 -91 9 -135 15 -45 7 -345 16 -686 21 -374 6 -616 14 -633 21 -15 5 -60
10 -100 10 -39 0 -76 4 -81 9 -6 5 -35 12 -65 14 -51 5 -75 9 -200 35 -46 10
-102 28 -132 43 -10 5 -29 9 -43 9 -14 0 -25 5 -25 10 0 6 -11 10 -24 10 -14
0 -28 5 -31 10 -3 6 -17 10 -31 10 -13 0 -24 5 -24 10 0 6 -8 10 -18 10 -10 0
-27 7 -38 15 -10 8 -27 15 -36 15 -10 0 -18 5 -18 10 0 6 -9 10 -20 10 -11 0
-20 5 -20 10 0 6 -9 10 -20 10 -11 0 -20 4 -20 8 0 5 -16 14 -35 22 -19 8 -35
16 -35 20 0 3 -16 14 -35 24 -19 11 -35 23 -35 28 0 4 -9 8 -20 8 -11 0 -20 3
-20 8 0 4 -17 18 -37 32 -20 14 -47 35 -59 48 -13 12 -25 22 -28 22 -6 0 -77
64 -130 116 -17 16 -53 56 -81 89 -27 32 -57 65 -66 74 -8 9 -26 32 -39 51
-13 19 -27 37 -30 40 -16 13 -80 109 -80 119 0 6 -4 11 -10 11 -5 0 -10 5 -10
10 0 9 -47 88 -60 100 -10 9 -110 215 -110 226 0 6 -7 17 -15 24 -8 7 -15 21
-15 31 0 11 -4 19 -10 19 -5 0 -10 11 -10 25 0 14 -4 25 -10 25 -5 0 -10 9
-10 19 0 11 -4 23 -10 26 -5 3 -10 15 -10 26 0 10 -4 27 -9 37 -5 9 -17 35
-26 57 -10 22 -22 48 -26 57 -5 10 -9 27 -9 37 0 11 -4 23 -10 26 -5 3 -10 19
-10 36 0 16 -4 29 -10 29 -5 0 -10 16 -10 35 0 19 -4 35 -10 35 -5 0 -10 11
-10 25 0 13 -6 39 -14 57 -23 54 -36 103 -36 131 0 14 -4 29 -10 32 -5 3 -10
21 -10 40 0 19 -4 37 -10 40 -6 3 -10 20 -10 37 0 18 -4 45 -9 62 -6 17 -15
58 -21 91 -6 33 -16 80 -22 105 -28 114 -62 363 -97 705 -6 55 -13 109 -16
120 -8 25 -22 240 -35 510 -5 116 -12 240 -16 277 -6 61 -5 68 12 75 11 3 21
9 24 13 3 3 24 14 48 24 23 11 42 23 42 28 0 4 6 8 13 8 15 0 187 86 202 101
5 5 17 9 27 9 10 0 18 5 18 10 0 6 6 10 12 10 17 0 162 72 166 82 2 4 12 8 22
8 10 0 22 5 25 10 3 6 15 10 26 10 10 0 19 5 19 10 0 6 9 10 20 10 11 0 20 5
20 10 0 6 7 10 15 10 8 0 23 4 33 9 61 31 129 61 140 61 6 0 12 5 12 10 0 6 7
10 15 10 8 0 23 4 33 9 31 17 112 51 119 51 4 0 33 12 63 26 30 15 66 31 80
36 14 6 33 14 42 19 10 5 27 9 38 9 11 0 20 5 20 10 0 6 8 10 18 10 10 0 26 6
37 13 11 7 38 18 60 25 42 14 78 28 107 43 10 5 26 9 36 9 10 0 22 4 27 8 6 4
28 14 50 21 36 11 82 30 127 52 10 5 27 9 37 9 11 0 23 5 26 10 3 6 17 10 30
10 13 0 27 5 30 10 3 6 17 10 31 10 13 0 32 4 42 9 46 23 95 41 112 41 11 0
20 5 20 10 0 6 13 10 29 10 17 0 33 5 36 10 3 6 19 10 36 10 16 0 29 5 29 10
0 6 16 10 35 10 19 0 35 5 35 10 0 6 11 10 25 10 13 0 39 6 57 14 51 21 102
36 126 36 11 0 24 5 27 10 3 6 19 10 35 10 16 0 32 5 35 10 3 6 19 10 36 10
16 0 37 4 47 9 9 5 44 15 77 21 33 6 75 18 93 26 18 8 45 14 60 14 16 0 32 4
38 9 5 5 27 11 49 14 22 3 63 11 90 17 28 6 70 14 95 17 25 3 49 9 54 14 6 5
22 9 37 9 15 0 40 5 56 11 15 6 55 15 88 20 33 6 85 14 115 20 100 18 254 43
369 58 41 6 81 13 90 17 9 4 54 11 101 15 47 5 123 14 170 20 131 16 305 32
655 59 241 18 802 35 829 24z"/>
</g>
</svg>
